<svg xmlns="http://www.w3.org/2000/svg" xmlns:svg="http://www.w3.org/2000/svg" xmlns:xlink="http://www.w3.org/1999/xlink" version="1.0" height="695pt" width="1394.9pt" viewBox="115.1 462 1402.9 701" ><defs><style type="text/css">
            @font-face {
                font-family: 'noto_regular';
                src: url('https://app.creately.com/diagram/assets/fonts/noto/noto-regular.woff') format('woff'),
                     url('https://app.creately.com/diagram/assets/fonts/noto/noto-regular.woff2') format('woff2');
                font-weight: normal;
                font-style: normal;
            }
        p {
            margin: 0;
        }
        </style></defs><defs><style>
            span{ display: inline-block; }
        </style></defs><g id="1eq3iodwkr"><g transform="translate(270 645)"><rect x="0" y="0" width="100" height="50" fill="rgba(255,255,255,1)" stroke="#75c19b" stroke-width="1.5" stroke-linecap="round" stroke-linejoin="round"/></g><g transform="translate(297, 660.5) rotate(0, 23, 9.5)" width="46" height="19"><text text-decoration="none" x="1" fill="rgb(75, 75, 75)" font-size="10pt" font-family="Lato"  y="17">Friends</text><text text-decoration="none" x="45" fill="#4b4b4b" font-size="10pt" font-family="noto_regular"  y="17"></text></g></g><g id="2iunceoukg"><g transform="translate(650 955)"><rect x="0" y="0" width="100" height="50" fill="rgba(255,255,255,1)" stroke="#75c19b" stroke-width="1.5" stroke-linecap="round" stroke-linejoin="round"/></g><g transform="translate(668, 970.5) rotate(0, 32, 9.5)" width="64" height="19"><text text-decoration="none" x="3" fill="rgb(75, 75, 75)" font-size="10pt" font-family="Lato"  y="17">Messages</text><text text-decoration="none" x="61" fill="#4b4b4b" font-size="10pt" font-family="noto_regular"  y="17"></text></g></g><g id="2na3l836ty"><g transform="translate(830 645)"><rect x="0" y="0" width="100" height="50" fill="rgba(255,255,255,1)" stroke="#75c19b" stroke-width="1.5" stroke-linecap="round" stroke-linejoin="round"/></g><g transform="translate(861.5, 660.5) rotate(0, 18.5, 9.5)" width="37" height="19"><text text-decoration="none" x="2" fill="rgb(75, 75, 75)" font-size="10pt" font-family="Lato"  y="17">Users</text><text text-decoration="none" x="35" fill="#4b4b4b" font-size="10pt" font-family="noto_regular"  y="17"></text></g></g><g id="1g0604r487"><g transform="translate(310 545)"><ellipse cx="42.500004172325134" cy="25" rx="42.500004172325134" ry="25" fill="rgba(255,255,255,1)" stroke="#f6902a" stroke-width="1.5" stroke-linecap="round" stroke-linejoin="round"/></g><g transform="translate(318.50000417232513, 560.5) rotate(0, 34, 9.5)" width="68" height="19"><text text-decoration="none" x="2" fill="rgb(75, 75, 75)" font-size="10pt" font-family="Lato"  y="17">ProviderID</text><text text-decoration="none" x="66" fill="#4b4b4b" font-size="10pt" font-family="noto_regular"  y="17"></text></g></g><g id="1sf1njaw93"><g transform="translate(179.95 495)"><ellipse cx="40.00000059604645" cy="25" rx="40.00000059604645" ry="25" fill="rgba(255,255,255,1)" stroke="#f6902a" stroke-width="1.5" stroke-linecap="round" stroke-linejoin="round"/></g><g transform="translate(211.95000059604644, 510.5) rotate(0, 8, 9.5)" width="16" height="19"><text text-decoration="underline" x="1" fill="rgb(75, 75, 75)" font-weight="bold" font-size="10pt" font-family="Lato"  y="17">ID</text><text text-decoration="none" x="15" fill="#4b4b4b" font-size="10pt" font-family="noto_regular"  y="17"></text></g></g><g id="1smztnm5yu"><g transform="translate(120.1 600)"><ellipse cx="47.50000536441803" cy="25" rx="47.50000536441803" ry="25" fill="rgba(255,255,255,1)" stroke="#f6902a" stroke-width="1.5" stroke-linecap="round" stroke-linejoin="round"/></g><g transform="translate(134.60000536441802, 615.5) rotate(0, 33, 9.5)" width="66" height="19"><text text-decoration="none" x="2" fill="rgb(75, 75, 75)" font-size="10pt" font-family="Lato"  y="17">RequestID</text><text text-decoration="none" x="64" fill="#4b4b4b" font-size="10pt" font-family="noto_regular"  y="17"></text></g></g><g id="unl1hl7l93"><g><path d="M 340,595 L 320,645" fill="none" stroke="#a0a0a0" stroke-width="1.5" stroke-linecap="round" stroke-linejoin="round"/></g></g><g id="ars1idx787"><g><path d="M 244.95,540 L 320,645" fill="none" stroke="#a0a0a0" stroke-width="1.5" stroke-linecap="round" stroke-linejoin="round"/></g></g><g id="2cble1lh6g"><g><path d="M 215.1,625 L 320,645" fill="none" stroke="#a0a0a0" stroke-width="1.5" stroke-linecap="round" stroke-linejoin="round"/></g></g><g id="307ubex5ii"><g transform="translate(420 1005)"><ellipse cx="50" cy="25" rx="50" ry="25" fill="rgba(255,255,255,1)" stroke="#f6902a" stroke-width="1.5" stroke-linecap="round" stroke-linejoin="round"/></g><g transform="translate(462, 1020.5) rotate(0, 8, 9.5)" width="16" height="19"><text text-decoration="underline" x="1" fill="rgb(75, 75, 75)" font-weight="bold" font-size="10pt" font-family="Lato"  y="17">ID</text><text text-decoration="none" x="15" fill="#4b4b4b" font-size="10pt" font-family="noto_regular"  y="17"></text></g></g><g id="142h0yqve9"><g transform="translate(560 1100)"><ellipse cx="50" cy="25" rx="50" ry="25" fill="rgba(255,255,255,1)" stroke="#f6902a" stroke-width="1.5" stroke-linecap="round" stroke-linejoin="round"/></g><g transform="translate(590, 1115.5) rotate(0, 20, 9.5)" width="40" height="19"><text text-decoration="none" x="0.5" fill="rgb(75, 75, 75)" font-size="10pt" font-family="Lato"  y="17">TouID&#160;</text><text text-decoration="none" x="39.5" fill="#4b4b4b" font-size="10pt" font-family="noto_regular"  y="17"></text></g></g><g id="1o8hehkclx"><g transform="translate(785 1080)"><ellipse cx="50" cy="25" rx="50" ry="25" fill="rgba(255,255,255,1)" stroke="#f6902a" stroke-width="1.5" stroke-linecap="round" stroke-linejoin="round"/></g><g transform="translate(819, 1087.5) rotate(0, 16, 17.5)" width="32" height="35"><text text-decoration="none" x="1" fill="rgb(75, 75, 75)" font-size="10pt" font-family="Lato"  y="14">Read</text><text text-decoration="none" x="31" fill="rgb(75, 75, 75)" font-size="10pt" font-family="Lato"  y="14"></text><text text-decoration="none" x="16" fill="#4b4b4b" font-size="10pt" font-family="noto_regular"  y="36"></text></g></g><g id="23cbf94uyb"><g transform="translate(870 1045)"><ellipse cx="50" cy="25" rx="50" ry="25" fill="rgba(255,255,255,1)" stroke="#f6902a" stroke-width="1.5" stroke-linecap="round" stroke-linejoin="round"/></g><g transform="translate(895, 1060.5) rotate(0, 25, 9.5)" width="50" height="19"><text text-decoration="none" x="2" fill="rgb(75, 75, 75)" font-size="10pt" font-family="Lato"  y="17">ReadDT</text><text text-decoration="none" x="48" fill="#4b4b4b" font-size="10pt" font-family="noto_regular"  y="17"></text></g></g><g id="1bj5a6qq05"><g transform="translate(675 1110)"><ellipse cx="50" cy="25" rx="50" ry="25" fill="rgba(255,255,255,1)" stroke="#f6902a" stroke-width="1.5" stroke-linecap="round" stroke-linejoin="round"/></g><g transform="translate(701.5, 1125.5) rotate(0, 23.5, 9.5)" width="47" height="19"><text text-decoration="none" x="2" fill="rgb(75, 75, 75)" font-size="10pt" font-family="Lato"  y="17">SentDT</text><text text-decoration="none" x="45" fill="#4b4b4b" font-size="10pt" font-family="noto_regular"  y="17"></text></g></g><g id="6j88yobena"><g transform="translate(480 1050)"><ellipse cx="50" cy="25" rx="50" ry="25" fill="rgba(255,255,255,1)" stroke="#f6902a" stroke-width="1.5" stroke-linecap="round" stroke-linejoin="round"/></g><g transform="translate(503, 1065.5) rotate(0, 27, 9.5)" width="54" height="19"><text text-decoration="none" x="0.5" fill="rgb(75, 75, 75)" font-size="10pt" font-family="Lato"  y="17">FromuID</text><text text-decoration="none" x="53.5" fill="#4b4b4b" font-size="10pt" font-family="noto_regular"  y="17"></text></g></g><g id="1wcifo5r7j"><g transform="translate(925 1000)"><ellipse cx="55.000001192092896" cy="25" rx="55.000001192092896" ry="25" fill="rgba(255,255,255,1)" stroke="#f6902a" stroke-width="1.5" stroke-linecap="round" stroke-linejoin="round"/></g><g transform="translate(938.0000011920929, 1015.5) rotate(0, 42, 9.5)" width="84" height="19"><text text-decoration="none" x="3" fill="rgb(75, 75, 75)" font-size="10pt" font-family="Lato"  y="17">MessageText</text><text text-decoration="none" x="81" fill="#4b4b4b" font-size="10pt" font-family="noto_regular"  y="17"></text></g></g><g id="2lhsy3x0lr"><g><path d="M 925,1025 L 700,1005" fill="none" stroke="#a0a0a0" stroke-width="1.5" stroke-linecap="round" stroke-linejoin="round"/></g></g><g id="5ypoia194i"><g><path d="M 520,1030 L 700,1005" fill="none" stroke="#a0a0a0" stroke-width="1.5" stroke-linecap="round" stroke-linejoin="round"/></g></g><g id="7l4rq2iq7a"><g><path d="M 580,1075 L 700,1005" fill="none" stroke="#a0a0a0" stroke-width="1.5" stroke-linecap="round" stroke-linejoin="round"/></g></g><g id="8rnimtsq70"><g><path d="M 640,1105 L 700,1005" fill="none" stroke="#a0a0a0" stroke-width="1.5" stroke-linecap="round" stroke-linejoin="round"/></g></g><g id="1t19u5u790"><g><path d="M 710,1110 L 700,1005" fill="none" stroke="#a0a0a0" stroke-width="1.5" stroke-linecap="round" stroke-linejoin="round"/></g></g><g id="2qokusid1u"><g><path d="M 785,1105 L 700,1005" fill="none" stroke="#a0a0a0" stroke-width="1.5" stroke-linecap="round" stroke-linejoin="round"/></g></g><g id="9s4s22moh0"><g><path d="M 870,1070 L 700,1005" fill="none" stroke="#a0a0a0" stroke-width="1.5" stroke-linecap="round" stroke-linejoin="round"/></g></g><g id="8i34exsigx"><g transform="translate(690 525)"><ellipse cx="50" cy="25" rx="50" ry="25" fill="rgba(255,255,255,1)" stroke="#f6902a" stroke-width="1.5" stroke-linecap="round" stroke-linejoin="round"/></g><g transform="translate(705.5, 540.5) rotate(0, 34.5, 9.5)" width="69" height="19"><text text-decoration="none" x="3" fill="rgb(75, 75, 75)" font-size="10pt" font-family="Lato"  y="17">UserName</text><text text-decoration="none" x="66" fill="#4b4b4b" font-size="10pt" font-family="noto_regular"  y="17"></text></g></g><g id="hst9vsd7hy"><g transform="translate(795 470)"><ellipse cx="50" cy="25" rx="50" ry="25" fill="rgba(255,255,255,1)" stroke="#f6902a" stroke-width="1.5" stroke-linecap="round" stroke-linejoin="round"/></g><g transform="translate(826.5, 485.5) rotate(0, 18.5, 9.5)" width="37" height="19"><text text-decoration="none" x="2.5" fill="rgb(75, 75, 75)" font-size="10pt" font-family="Lato"  y="17">Email</text><text text-decoration="none" x="34.5" fill="#4b4b4b" font-size="10pt" font-family="noto_regular"  y="17"></text></g></g><g id="5r94eb34fu"><g transform="translate(1005 465)"><ellipse cx="50" cy="25" rx="50" ry="25" fill="rgba(255,255,255,1)" stroke="#f6902a" stroke-width="1.5" stroke-linecap="round" stroke-linejoin="round"/></g><g transform="translate(1034.5, 480.5) rotate(0, 20.5, 9.5)" width="41" height="19"><text text-decoration="none" x="1.5" fill="rgb(75, 75, 75)" font-size="10pt" font-family="Lato"  y="17">Status</text><text text-decoration="none" x="39.5" fill="#4b4b4b" font-size="10pt" font-family="noto_regular"  y="17"></text></g></g><g id="1lopt55ack"><g transform="translate(1120 525)"><ellipse cx="50" cy="25" rx="50" ry="25" fill="rgba(255,255,255,1)" stroke="#f6902a" stroke-width="1.5" stroke-linecap="round" stroke-linejoin="round"/></g><g transform="translate(1143, 540.5) rotate(0, 27, 9.5)" width="54" height="19"><text text-decoration="none" x="2.5" fill="rgb(75, 75, 75)" font-size="10pt" font-family="Lato"  y="17">UserKey</text><text text-decoration="none" x="51.5" fill="#4b4b4b" font-size="10pt" font-family="noto_regular"  y="17"></text></g></g><g id="93pygiy8uj"><g transform="translate(1120 590)"><ellipse cx="50" cy="25" rx="50" ry="25" fill="rgba(255,255,255,1)" stroke="#f6902a" stroke-width="1.5" stroke-linecap="round" stroke-linejoin="round"/></g><g transform="translate(1164, 605.5) rotate(0, 6, 9.5)" width="12" height="19"><text text-decoration="none" x="0" fill="rgb(75, 75, 75)" font-size="10pt" font-family="Lato"  y="17">IP</text><text text-decoration="none" x="12" fill="#4b4b4b" font-size="10pt" font-family="noto_regular"  y="17"></text></g></g><g id="2dyxihfo8x"><g transform="translate(1120 650)"><ellipse cx="50" cy="25" rx="50" ry="25" fill="rgba(255,255,255,1)" stroke="#f6902a" stroke-width="1.5" stroke-linecap="round" stroke-linejoin="round"/></g><g transform="translate(1157, 665.5) rotate(0, 13, 9.5)" width="26" height="19"><text text-decoration="none" x="0" fill="rgb(75, 75, 75)" font-size="10pt" font-family="Lato"  y="17">Port</text><text text-decoration="none" x="26" fill="#4b4b4b" font-size="10pt" font-family="noto_regular"  y="17"></text></g></g><g id="4piu2c32cm"><g transform="translate(1115.05 465)"><ellipse cx="60.00000238418579" cy="25" rx="60.00000238418579" ry="25" fill="rgba(255,255,255,1)" stroke="#f6902a" stroke-width="1.5" stroke-linecap="round" stroke-linejoin="round"/></g><g transform="translate(1109.0500023841857, 480.5) rotate(0, 66, 9.5)" width="132" height="19"><text text-decoration="none" x="5.5" fill="rgb(75, 75, 75)" font-size="10pt" font-family="Lato"  y="17">AuthenticationTime&#160;</text><text text-decoration="none" x="126.5" fill="#4b4b4b" font-size="10pt" font-family="noto_regular"  y="17"></text></g></g><g id="1b0opaclty"><g transform="translate(905 465)"><ellipse cx="50" cy="25" rx="50" ry="25" fill="rgba(255,255,255,1)" stroke="#f6902a" stroke-width="1.5" stroke-linecap="round" stroke-linejoin="round"/></g><g transform="translate(939.5, 480.5) rotate(0, 15.5, 9.5)" width="31" height="19"><text text-decoration="none" x="1.5" fill="rgb(75, 75, 75)" font-size="10pt" font-family="Lato"  y="17">Date</text><text text-decoration="none" x="29.5" fill="#4b4b4b" font-size="10pt" font-family="noto_regular"  y="17"></text></g></g><g id="2fvpa6hmth"><g transform="translate(690 470)"><ellipse cx="50" cy="25" rx="50" ry="25" fill="rgba(255,255,255,1)" stroke="#f6902a" stroke-width="1.5" stroke-linecap="round" stroke-linejoin="round"/></g><g transform="translate(709.5, 485.5) rotate(0, 30.5, 9.5)" width="61" height="19"><text text-decoration="none" x="1.5" fill="rgb(75, 75, 75)" font-size="10pt" font-family="Lato"  y="17">Password</text><text text-decoration="none" x="59.5" fill="#4b4b4b" font-size="10pt" font-family="noto_regular"  y="17"></text></g></g><g id="1fa1ydszjp"><g transform="translate(695 580)"><ellipse cx="50" cy="25" rx="50" ry="25" fill="rgba(255,255,255,1)" stroke="#f6902a" stroke-width="1.5" stroke-linecap="round" stroke-linejoin="round"/></g><g transform="translate(737, 595.5) rotate(0, 8, 9.5)" width="16" height="19"><text text-decoration="underline" x="1" fill="rgb(75, 75, 75)" font-weight="bold" font-size="10pt" font-family="Lato"  y="17">ID</text><text text-decoration="none" x="15" fill="#4b4b4b" font-size="10pt" font-family="noto_regular"  y="17"></text></g></g><g id="nyf9jwbrg2"><g><path d="M 790,550 L 880,645" fill="none" stroke="#a0a0a0" stroke-width="1.5" stroke-linecap="round" stroke-linejoin="round"/></g></g><g id="zkhz0hge6b"><g><path d="M 795,605 L 880,645" fill="none" stroke="#a0a0a0" stroke-width="1.5" stroke-linecap="round" stroke-linejoin="round"/></g></g><g id="1f6bkakyzn"><g><path d="M 860,520 L 880,645" fill="none" stroke="#a0a0a0" stroke-width="1.5" stroke-linecap="round" stroke-linejoin="round"/></g></g><g id="2o32lu9p0e"><g><path d="M 925,510 L 880,645" fill="none" stroke="#a0a0a0" stroke-width="1.5" stroke-linecap="round" stroke-linejoin="round"/></g></g><g id="16o3n95bs5"><g><path d="M 1025,510 L 880,645" fill="none" stroke="#a0a0a0" stroke-width="1.5" stroke-linecap="round" stroke-linejoin="round"/></g></g><g id="6y4fil90hz"><g><path d="M 1115.05,490 L 930,670" fill="none" stroke="#a0a0a0" stroke-width="1.5" stroke-linecap="round" stroke-linejoin="round"/></g></g><g id="1a69te7lmx"><g><path d="M 1120,550 L 930,670" fill="none" stroke="#a0a0a0" stroke-width="1.5" stroke-linecap="round" stroke-linejoin="round"/></g></g><g id="1ygbqlusad"><g><path d="M 1120,615 L 930,670" fill="none" stroke="#a0a0a0" stroke-width="1.5" stroke-linecap="round" stroke-linejoin="round"/></g></g><g id="29cxjzmm9r"><g><path d="M 1120,675 L 930,670" fill="none" stroke="#a0a0a0" stroke-width="1.5" stroke-linecap="round" stroke-linejoin="round"/></g></g><g id="chpn2s6us1"><g transform="translate(760 810)"><path d="M 94.99999821186066,30 L 47.49999910593033,60 L 0,30 L 47.49999910593033,0 L 94.99999821186066,30 L 94.99999821186066,30 Z" fill="rgba(255,255,255,1)" stroke="#75c19b" stroke-width="1.5" stroke-linecap="round" stroke-linejoin="round"/></g><g transform="translate(778.9999991059303, 822.5) rotate(0, 28.5, 17.5)" width="57" height="35"><text text-decoration="none" x="10.5" fill="rgb(75, 75, 75)" font-size="10pt" font-family="Lato"  y="14">Sends&#160;</text><text text-decoration="none" x="2.5" fill="rgb(75, 75, 75)" font-size="10pt" font-family="Lato"  y="36">Message</text><text text-decoration="none" x="54.5" fill="#4b4b4b" font-size="10pt" font-family="noto_regular"  y="36"></text></g></g><g id="235v2jdfcc"><mask id="dbbe1" x="792" y="682" width="101" height="141" maskUnits="userSpaceOnUse"><rect x="792" y="682" width="101" height="141" fill="white" /><rect x="835.5" y="740" width="14" height="25" fill="black" /><rect x="835.5" y="740" width="14" height="25" fill="black" /></mask><g mask="url(#dbbe1)"><path d="M 805,810 L 805,752.5 L 842.5,752.5 L 880,752.5 L 880,695" fill="none" stroke="#a0a0a0" stroke-width="1.5" stroke-linecap="round" stroke-linejoin="round"/></g><g transform="translate(838.5, 743)" width="8" height="19"><text text-decoration="none" x="0.5" fill="rgb(0, 0, 0)" font-size="9pt" font-family="Lato"  y="17">1</text><text text-decoration="none" x="7.5" fill="#4b4b4b" font-size="10pt" font-family="noto_regular"  y="17"></text></g><g transform="translate(838.5, 743)" width="8" height="19"><text text-decoration="none" x="0.5" fill="rgb(0, 0, 0)" font-size="9pt" font-family="Lato"  y="17">1</text><text text-decoration="none" x="7.5" fill="#4b4b4b" font-size="10pt" font-family="noto_regular"  y="17"></text></g></g><g id="320vb447x9"><mask id="9a302" x="687" y="827" width="86" height="141" maskUnits="userSpaceOnUse"><rect x="687" y="827" width="86" height="141" fill="white" /><rect x="692" y="855" width="16" height="25" fill="black" /><rect x="692" y="855" width="16" height="25" fill="black" /></mask><g mask="url(#9a302)"><path d="M 760,840 L 700,840 L 700,955" fill="none" stroke="#a0a0a0" stroke-width="1.5" stroke-linecap="round" stroke-linejoin="round"/></g><g transform="translate(695, 858)" width="10" height="19"><text text-decoration="none" x="0" fill="rgb(75, 75, 75)" font-weight="bold" font-size="9pt" font-family="Arial"  y="17">N</text><text text-decoration="none" x="10" fill="#4b4b4b" font-size="10pt" font-family="noto_regular"  y="17"></text></g><g transform="translate(695, 858)" width="10" height="19"><text text-decoration="none" x="0" fill="rgb(75, 75, 75)" font-weight="bold" font-size="9pt" font-family="Arial"  y="17">N</text><text text-decoration="none" x="10" fill="#4b4b4b" font-size="10pt" font-family="noto_regular"  y="17"></text></g></g><g id="l8wedzop89"><g transform="translate(540 640)"><path d="M 94.99999821186066,30 L 47.49999910593033,60 L 0,30 L 47.49999910593033,0 L 94.99999821186066,30 L 94.99999821186066,30 Z" fill="rgba(255,255,255,1)" stroke="#75c19b" stroke-width="1.5" stroke-linecap="round" stroke-linejoin="round"/></g><g transform="translate(570.4999991059303, 660.5) rotate(0, 17, 9.5)" width="34" height="19"><text text-decoration="none" x="1.5" fill="rgb(75, 75, 75)" font-size="10pt" font-family="Lato"  y="17">Have</text><text text-decoration="none" x="32.5" fill="#4b4b4b" font-size="10pt" font-family="noto_regular"  y="17"></text></g></g><g id="4qvsszsdvx"><mask id="a1f7c" x="357" y="657" width="196" height="26" maskUnits="userSpaceOnUse"><rect x="357" y="657" width="196" height="26" fill="white" /><rect x="447" y="657.5" width="16" height="25" fill="black" /><rect x="447" y="657.5" width="16" height="25" fill="black" /></mask><g mask="url(#a1f7c)"><path d="M 370,670 L 540,670" fill="none" stroke="#a0a0a0" stroke-width="1.5" stroke-linecap="round" stroke-linejoin="round"/></g><g transform="translate(450, 660.5)" width="10" height="19"><text text-decoration="none" x="0" fill="rgb(75, 75, 75)" font-weight="bold" font-size="9pt" font-family="Arial"  y="17">N</text><text text-decoration="none" x="10" fill="#4b4b4b" font-size="10pt" font-family="noto_regular"  y="17"></text></g><g transform="translate(450, 660.5)" width="10" height="19"><text text-decoration="none" x="0" fill="rgb(75, 75, 75)" font-weight="bold" font-size="9pt" font-family="Arial"  y="17">N</text><text text-decoration="none" x="10" fill="#4b4b4b" font-size="10pt" font-family="noto_regular"  y="17"></text></g></g><g id="2ogxoyyyyj"><mask id="b7113" x="622" y="657" width="221" height="26" maskUnits="userSpaceOnUse"><rect x="622" y="657" width="221" height="26" fill="white" /><rect x="725.5" y="657.5" width="14" height="25" fill="black" /><rect x="725.5" y="657.5" width="14" height="25" fill="black" /></mask><g mask="url(#b7113)"><path d="M 635,670 L 732.0499977111816,670 L 732.0499977111816,670 L 732.0499977111816,670 L 830,670" fill="none" stroke="#a0a0a0" stroke-width="1.5" stroke-linecap="round" stroke-linejoin="round"/></g><g transform="translate(728.5, 660.5)" width="8" height="19"><text text-decoration="none" x="0.5" fill="rgb(0, 0, 0)" font-size="9pt" font-family="Lato"  y="17">1</text><text text-decoration="none" x="7.5" fill="#4b4b4b" font-size="10pt" font-family="noto_regular"  y="17"></text></g><g transform="translate(728.5, 660.5)" width="8" height="19"><text text-decoration="none" x="0.5" fill="rgb(0, 0, 0)" font-size="9pt" font-family="Lato"  y="17">1</text><text text-decoration="none" x="7.5" fill="#4b4b4b" font-size="10pt" font-family="noto_regular"  y="17"></text></g></g><g id="4uwj6cma5r"><g transform="translate(385 810)"><path d="M 130,30 L 65,60 L 0,30 L 65,0 L 130,30 L 130,30 Z" fill="rgba(255,255,255,1)" stroke="#75c19b" stroke-width="1.5" stroke-linecap="round" stroke-linejoin="round"/></g><g transform="translate(392, 830.5) rotate(0, 58, 9.5)" width="116" height="19"><text text-decoration="none" x="5" fill="rgb(75, 75, 75)" font-size="10pt" font-family="Lato"  y="17">Receive&#160;</text><text text-decoration="none" x="53" fill="rgb(75, 75, 75)" font-size="10pt" font-family="Lato"  y="17">Message&#160;&#160;</text><text text-decoration="none" x="111" fill="#4b4b4b" font-size="10pt" font-family="noto_regular"  y="17"></text></g></g><g id="2om7wndgbf"><mask id="a71d1" x="502" y="827" width="161" height="166" maskUnits="userSpaceOnUse"><rect x="502" y="827" width="161" height="166" fill="white" /><rect x="574.5" y="897.5" width="16" height="25" fill="black" /><rect x="574.5" y="897.5" width="16" height="25" fill="black" /></mask><g mask="url(#a71d1)"><path d="M 515,840 L 582.5,840 L 582.5,910 L 582.5,980 L 650,980" fill="none" stroke="#a0a0a0" stroke-width="1.5" stroke-linecap="round" stroke-linejoin="round"/></g><g transform="translate(577.5, 900.5)" width="10" height="19"><text text-decoration="none" x="0" fill="rgb(75, 75, 75)" font-weight="bold" font-size="9pt" font-family="Arial"  y="17">N</text><text text-decoration="none" x="10" fill="#4b4b4b" font-size="10pt" font-family="noto_regular"  y="17"></text></g><g transform="translate(577.5, 900.5)" width="10" height="19"><text text-decoration="none" x="0" fill="rgb(75, 75, 75)" font-weight="bold" font-size="9pt" font-family="Arial"  y="17">N</text><text text-decoration="none" x="10" fill="#4b4b4b" font-size="10pt" font-family="noto_regular"  y="17"></text></g></g><g id="7u64bpgl33"><mask id="e7763" x="307" y="682" width="156" height="141" maskUnits="userSpaceOnUse"><rect x="307" y="682" width="156" height="141" fill="white" /><rect x="383.025641025641" y="740" width="14" height="25" fill="black" /><rect x="383.025641025641" y="740" width="14" height="25" fill="black" /></mask><g mask="url(#e7763)"><path d="M 450,810 L 450,752.5 L 385,752.5 L 320,752.5 L 320,695" fill="none" stroke="#a0a0a0" stroke-width="1.5" stroke-linecap="round" stroke-linejoin="round"/></g><g transform="translate(386.025641025641, 743)" width="8" height="19"><text text-decoration="none" x="0.5" fill="rgb(0, 0, 0)" font-size="9pt" font-family="Lato"  y="17">1</text><text text-decoration="none" x="7.5" fill="#4b4b4b" font-size="10pt" font-family="noto_regular"  y="17"></text></g><g transform="translate(386.025641025641, 743)" width="8" height="19"><text text-decoration="none" x="0.5" fill="rgb(0, 0, 0)" font-size="9pt" font-family="Lato"  y="17">1</text><text text-decoration="none" x="7.5" fill="#4b4b4b" font-size="10pt" font-family="noto_regular"  y="17"></text></g></g><g id="6510oh4ah9"><g transform="translate(1105 715)"><ellipse cx="72.50000238418579" cy="27.500000596046448" rx="72.50000238418579" ry="27.500000596046448" fill="rgba(255,255,255,1)" stroke="#f6902a" stroke-width="1.5" stroke-linecap="round" stroke-linejoin="round"/></g><g transform="translate(1130.0000023841858, 733.0000005960464) rotate(0, 47.5, 9.5)" width="95" height="19"><text text-decoration="none" x="3" fill="rgb(75, 75, 75)" font-size="10pt" font-family="Lato"  y="17">RandomStatus</text><text text-decoration="none" x="92" fill="#4b4b4b" font-size="10pt" font-family="noto_regular"  y="17"></text></g></g><g id="5okps9nvly"><g><path d="M 926,669 L 1105,740" fill="none" stroke="#a0a0a0" stroke-width="1.5" stroke-linecap="round" stroke-linejoin="round"/></g></g><g id="2idke9wyot"><g transform="translate(1270 905)"><rect x="0" y="0" width="100" height="50" fill="rgba(255,255,255,1)" stroke="#75c19b" stroke-width="1.5" stroke-linecap="round" stroke-linejoin="round"/></g><g transform="translate(1299, 920.5) rotate(0, 21, 9.5)" width="42" height="19"><text text-decoration="none" x="1.5" fill="rgb(75, 75, 75)" font-size="10pt" font-family="Lato"  y="17">Admin</text><text text-decoration="none" x="40.5" fill="#4b4b4b" font-size="10pt" font-family="noto_regular"  y="17"></text></g></g><g id="2aaasz6fpl"><g transform="translate(1415 1020)"><ellipse cx="50" cy="25" rx="50" ry="25" fill="rgba(255,255,255,1)" stroke="#f6902a" stroke-width="1.5" stroke-linecap="round" stroke-linejoin="round"/></g><g transform="translate(1434.5, 1035.5) rotate(0, 30.5, 9.5)" width="61" height="19"><text text-decoration="none" x="1.5" fill="rgb(75, 75, 75)" font-size="10pt" font-family="Lato"  y="17">Password</text><text text-decoration="none" x="59.5" fill="#4b4b4b" font-size="10pt" font-family="noto_regular"  y="17"></text></g></g><g id="2o1bwfm9be"><g transform="translate(1085 1015)"><ellipse cx="50" cy="25" rx="50" ry="25" fill="rgba(255,255,255,1)" stroke="#f6902a" stroke-width="1.5" stroke-linecap="round" stroke-linejoin="round"/></g><g transform="translate(1107, 1030.5) rotate(0, 28, 9.5)" width="56" height="19"><text text-decoration="underline" x="2" fill="rgb(75, 75, 75)" font-size="10pt" font-family="Lato"  y="17">AdminID</text><text text-decoration="none" x="54" fill="#4b4b4b" font-size="10pt" font-family="noto_regular"  y="17"></text></g></g><g id="1hn93yspv3"><g transform="translate(1160 1075)"><ellipse cx="50" cy="25" rx="50" ry="25" fill="rgba(255,255,255,1)" stroke="#f6902a" stroke-width="1.5" stroke-linecap="round" stroke-linejoin="round"/></g><g transform="translate(1180.5, 1090.5) rotate(0, 29.5, 9.5)" width="59" height="19"><text text-decoration="none" x="2" fill="rgb(75, 75, 75)" font-size="10pt" font-family="Lato"  y="17">Fullname</text><text text-decoration="none" x="57" fill="#4b4b4b" font-size="10pt" font-family="noto_regular"  y="17"></text></g></g><g id="12mgfpcjow"><g transform="translate(1270 1110)"><ellipse cx="50" cy="25" rx="50" ry="25" fill="rgba(255,255,255,1)" stroke="#f6902a" stroke-width="1.5" stroke-linecap="round" stroke-linejoin="round"/></g><g transform="translate(1286.5, 1125.5) rotate(0, 33.5, 9.5)" width="67" height="19"><text text-decoration="none" x="3" fill="rgb(75, 75, 75)" font-size="10pt" font-family="Lato"  y="17">Username</text><text text-decoration="none" x="64" fill="#4b4b4b" font-size="10pt" font-family="noto_regular"  y="17"></text></g></g><g id="1mrmlvu1u3"><g transform="translate(1360 1075)"><ellipse cx="50" cy="25" rx="50" ry="25" fill="rgba(255,255,255,1)" stroke="#f6902a" stroke-width="1.5" stroke-linecap="round" stroke-linejoin="round"/></g><g transform="translate(1389, 1090.5) rotate(0, 21, 9.5)" width="42" height="19"><text text-decoration="none" x="3" fill="rgb(75, 75, 75)" font-size="10pt" font-family="Lato"  y="17">E-mail</text><text text-decoration="none" x="39" fill="#4b4b4b" font-size="10pt" font-family="noto_regular"  y="17"></text></g></g><g id="2np2rgilgj"><g><path d="M 1320,955 L 1165,1020" fill="none" stroke="#a0a0a0" stroke-width="1.5" stroke-linecap="round" stroke-linejoin="round"/></g></g><g id="csr4qloaa6"><g><path d="M 1320,955 L 1225,1075" fill="none" stroke="#a0a0a0" stroke-width="1.5" stroke-linecap="round" stroke-linejoin="round"/></g></g><g id="2ik8gb45jn"><g><path d="M 1320,955 L 1320,1110" fill="none" stroke="#a0a0a0" stroke-width="1.5" stroke-linecap="round" stroke-linejoin="round"/></g></g><g id="kwl9hdsx9c"><g><path d="M 1320,955 L 1410,1075" fill="none" stroke="#a0a0a0" stroke-width="1.5" stroke-linecap="round" stroke-linejoin="round"/></g></g><g id="10q1zppvfp"><g><path d="M 1320,955 L 1450,1020" fill="none" stroke="#a0a0a0" stroke-width="1.5" stroke-linecap="round" stroke-linejoin="round"/></g></g></svg>